<svg xmlns="http://www.w3.org/2000/svg" viewBox="0 0 760 680" width="760" height="680" role="img" font-family="Inter, 'Segoe UI', Helvetica, Arial, sans-serif"><title>AI model capability vs API price</title><desc>Claude Opus 5.5: ECI 167.3, $10.40 per 1M tokens; GPT-6 Astra: ECI 166.5, $20.00 per 1M tokens; Claude Sonnet 5.5: ECI 165.2, $5.20 per 1M tokens; Claude Fable 5.1: ECI 164.8, $26.00 per 1M tokens; GPT-5.5: ECI 159.2, $11.25 per 1M tokens; Kimi K3: ECI 157.6, $6.00 per 1M tokens; Gemini 3.8 Flash: ECI 156.9, $1.42 per 1M tokens; DeepSeek V4 Pro: ECI 155.4, $1.98 per 1M tokens; Qwen 3.8 Max: ECI 155.2, $3.00 per 1M tokens; Gemini 3.1 Pro: ECI 154.8, $4.27 per 1M tokens; DeepSeek V4.1 Flash: ECI 154.5, $0.52 per 1M tokens; Grok 4.20: ECI 152.0, $1.56 per 1M tokens; Kimi K2.6: ECI 151.1, $1.71 per 1M tokens; GPT-5 mini: ECI 145.5, $0.69 per 1M tokens; Gemini 3.5 Flash-Lite: ECI 145.1, $0.81 per 1M tokens; Gemini 3.1 Flash-Lite: ECI 144.4, $0.53 per 1M tokens; Claude Haiku 4.5: ECI 142.4, $2.10 per 1M tokens; Mistral Medium 3.5: ECI 141.4, $3.15 per 1M tokens; GPT-5 nano: ECI 139.4, $0.14 per 1M tokens; GPT-4.1: ECI 136.8, $3.50 per 1M tokens; GPT-4.1 mini: ECI 135.0, $0.70 per 1M tokens; GPT-4o: ECI 128.8, $4.38 per 1M tokens; GPT-4o mini: ECI 126.6, $0.26 per 1M tokens</desc><rect width="760" height="680" rx="16" fill="#18181b"/><text x="24" y="40" font-size="24" font-weight="700" fill="#f4f4f5">AI model capability vs API price</text><text x="24" y="68" font-size="15" fill="#a1a1aa">Epoch Capabilities Index (Epoch AI, CC BY) vs blended price per 1M tokens · 2026-10-04</text><line x1="70.0" y1="100" x2="70.0" y2="610" stroke="#3f3f46" stroke-width="1"/><text x="70.0" y="630" text-anchor="middle" font-size="14" fill="#a1a1aa">$0.1</text><line x1="144.3" y1="100" x2="144.3" y2="610" stroke="#3f3f46" stroke-width="0.5"/><text x="144.3" y="630" text-anchor="middle" font-size="14" fill="#a1a1aa">$0.2</text><line x1="242.5" y1="100" x2="242.5" y2="610" stroke="#3f3f46" stroke-width="0.5"/><text x="242.5" y="630" text-anchor="middle" font-size="14" fill="#a1a1aa">$0.5</text><line x1="316.8" y1="100" x2="316.8" y2="610" stroke="#3f3f46" stroke-width="1"/><text x="316.8" y="630" text-anchor="middle" font-size="14" fill="#a1a1aa">$1</text><line x1="391.0" y1="100" x2="391.0" y2="610" stroke="#3f3f46" stroke-width="0.5"/><text x="391.0" y="630" text-anchor="middle" font-size="14" fill="#a1a1aa">$2</text><line x1="489.2" y1="100" x2="489.2" y2="610" stroke="#3f3f46" stroke-width="0.5"/><text x="489.2" y="630" text-anchor="middle" font-size="14" fill="#a1a1aa">$5</text><line x1="563.5" y1="100" x2="563.5" y2="610" stroke="#3f3f46" stroke-width="1"/><text x="563.5" y="630" text-anchor="middle" font-size="14" fill="#a1a1aa">$10</text><line x1="637.8" y1="100" x2="637.8" y2="610" stroke="#3f3f46" stroke-width="0.5"/><text x="637.8" y="630" text-anchor="middle" font-size="14" fill="#a1a1aa">$20</text><line x1="736.0" y1="100" x2="736.0" y2="610" stroke="#3f3f46" stroke-width="0.5"/><text x="736.0" y="630" text-anchor="middle" font-size="14" fill="#a1a1aa">$50</text><line x1="70" y1="610.0" x2="736" y2="610.0" stroke="#3f3f46" stroke-width="0.5"/><text x="62" y="614.0" text-anchor="end" font-size="14" fill="#a1a1aa">120</text><line x1="70" y1="559.0" x2="736" y2="559.0" stroke="#3f3f46" stroke-width="0.5"/><text x="62" y="563.0" text-anchor="end" font-size="14" fill="#a1a1aa">125</text><line x1="70" y1="508.0" x2="736" y2="508.0" stroke="#3f3f46" stroke-width="0.5"/><text x="62" y="512.0" text-anchor="end" font-size="14" fill="#a1a1aa">130</text><line x1="70" y1="457.0" x2="736" y2="457.0" stroke="#3f3f46" stroke-width="0.5"/><text x="62" y="461.0" text-anchor="end" font-size="14" fill="#a1a1aa">135</text><line x1="70" y1="406.0" x2="736" y2="406.0" stroke="#3f3f46" stroke-width="0.5"/><text x="62" y="410.0" text-anchor="end" font-size="14" fill="#a1a1aa">140</text><line x1="70" y1="355.0" x2="736" y2="355.0" stroke="#3f3f46" stroke-width="0.5"/><text x="62" y="359.0" text-anchor="end" font-size="14" fill="#a1a1aa">145</text><line x1="70" y1="304.0" x2="736" y2="304.0" stroke="#3f3f46" stroke-width="0.5"/><text x="62" y="308.0" text-anchor="end" font-size="14" fill="#a1a1aa">150</text><line x1="70" y1="253.0" x2="736" y2="253.0" stroke="#3f3f46" stroke-width="0.5"/><text x="62" y="257.0" text-anchor="end" font-size="14" fill="#a1a1aa">155</text><line x1="70" y1="202.0" x2="736" y2="202.0" stroke="#3f3f46" stroke-width="0.5"/><text x="62" y="206.0" text-anchor="end" font-size="14" fill="#a1a1aa">160</text><line x1="70" y1="151.0" x2="736" y2="151.0" stroke="#3f3f46" stroke-width="0.5"/><text x="62" y="155.0" text-anchor="end" font-size="14" fill="#a1a1aa">165</text><line x1="70" y1="100.0" x2="736" y2="100.0" stroke="#3f3f46" stroke-width="0.5"/><text x="62" y="104.0" text-anchor="end" font-size="14" fill="#a1a1aa">170</text><text x="403" y="658" text-anchor="middle" font-size="15" fill="#a1a1aa">Blended API price per 1M tokens (USD, log scale) → cheaper on the left</text><text x="18" y="355" transform="rotate(-90 18 355)" text-anchor="middle" font-size="15" fill="#a1a1aa">Capability (ECI) ↑</text><polyline points="104.1,412.3 247.7,257.8 354.7,233.3 493.4,149.0 567.7,127.0" fill="none" stroke="#34d399" stroke-width="2" stroke-dasharray="6 4" opacity="0.8"/><circle cx="567.7" cy="127.0" r="8" fill="#34d399" stroke="#18181b" stroke-width="2"/><text x="555.7" y="132.0" text-anchor="end" font-size="15" font-weight="700" fill="#f4f4f5">Claude Opus 5.5</text><circle cx="637.8" cy="135.6" r="8" fill="#a78bfa" stroke="#18181b" stroke-width="2"/><text x="649.8" y="140.6" text-anchor="start" font-size="15" font-weight="400" fill="#f4f4f5">GPT-6 Astra</text><circle cx="493.4" cy="149.0" r="8" fill="#34d399" stroke="#18181b" stroke-width="2"/><text x="481.4" y="154.0" text-anchor="end" font-size="15" font-weight="700" fill="#f4f4f5">Claude Sonnet 5.5</text><circle cx="665.9" cy="152.8" r="8" fill="#a78bfa" stroke="#18181b" stroke-width="2"/><text x="653.9" y="157.8" text-anchor="end" font-size="15" font-weight="400" fill="#f4f4f5">Claude Fable 5.1</text><circle cx="576.1" cy="210.0" r="8" fill="#a78bfa" stroke="#18181b" stroke-width="2"/><text x="588.1" y="215.0" text-anchor="start" font-size="15" font-weight="400" fill="#f4f4f5">GPT-5.5</text><circle cx="508.8" cy="226.4" r="8" fill="#a78bfa" stroke="#18181b" stroke-width="2"/><text x="520.8" y="231.4" text-anchor="start" font-size="15" font-weight="400" fill="#f4f4f5">Kimi K3</text><circle cx="354.7" cy="233.3" r="8" fill="#34d399" stroke="#18181b" stroke-width="2"/><text x="342.7" y="238.3" text-anchor="end" font-size="15" font-weight="700" fill="#f4f4f5">Gemini 3.8 Flash</text><circle cx="390.0" cy="249.1" r="8" fill="#a78bfa" stroke="#18181b" stroke-width="2"/><line x1="390.0" y1="241.1" x2="378.0" y2="224.1" stroke="#a1a1aa" stroke-width="1" opacity="0.7"/><text x="378.0" y="221.1" text-anchor="end" font-size="15" font-weight="400" fill="#f4f4f5">DeepSeek V4 Pro</text><circle cx="434.5" cy="251.3" r="8" fill="#a78bfa" stroke="#18181b" stroke-width="2"/><text x="422.5" y="270.3" text-anchor="end" font-size="15" font-weight="400" fill="#f4f4f5">Qwen 3.8 Max</text><circle cx="472.5" cy="254.6" r="8" fill="#a78bfa" stroke="#18181b" stroke-width="2"/><text x="484.5" y="259.6" text-anchor="start" font-size="15" font-weight="400" fill="#f4f4f5">Gemini 3.1 Pro</text><circle cx="247.7" cy="257.8" r="8" fill="#34d399" stroke="#18181b" stroke-width="2"/><text x="235.7" y="262.8" text-anchor="end" font-size="15" font-weight="700" fill="#f4f4f5">DeepSeek V4.1 Flash</text><circle cx="364.6" cy="283.4" r="8" fill="#a78bfa" stroke="#18181b" stroke-width="2"/><text x="352.6" y="288.4" text-anchor="end" font-size="15" font-weight="400" fill="#f4f4f5">Grok 4.20</text><circle cx="374.4" cy="293.3" r="8" fill="#a78bfa" stroke="#18181b" stroke-width="2"/><text x="386.4" y="298.3" text-anchor="start" font-size="15" font-weight="400" fill="#f4f4f5">Kimi K2.6</text><circle cx="276.6" cy="349.8" r="8" fill="#a78bfa" stroke="#18181b" stroke-width="2"/><text x="288.6" y="340.8" text-anchor="start" font-size="15" font-weight="400" fill="#f4f4f5">GPT-5 mini</text><circle cx="293.8" cy="353.9" r="8" fill="#a78bfa" stroke="#18181b" stroke-width="2"/><text x="305.8" y="358.9" text-anchor="start" font-size="15" font-weight="400" fill="#f4f4f5">Gemini 3.5 Flash-Lite</text><circle cx="249.6" cy="360.6" r="8" fill="#a78bfa" stroke="#18181b" stroke-width="2"/><text x="249.6" y="386.6" text-anchor="middle" font-size="15" font-weight="400" fill="#f4f4f5">Gemini 3.1 Flash-Lite</text><circle cx="396.3" cy="381.3" r="8" fill="#a78bfa" stroke="#18181b" stroke-width="2"/><line x1="396.3" y1="389.3" x2="408.3" y2="409.3" stroke="#a1a1aa" stroke-width="1" opacity="0.7"/><text x="408.3" y="421.3" text-anchor="start" font-size="15" font-weight="400" fill="#f4f4f5">Claude Haiku 4.5</text><circle cx="439.7" cy="391.8" r="8" fill="#a78bfa" stroke="#18181b" stroke-width="2"/><text x="451.7" y="396.8" text-anchor="start" font-size="15" font-weight="400" fill="#f4f4f5">Mistral Medium 3.5</text><circle cx="104.1" cy="412.3" r="8" fill="#34d399" stroke="#18181b" stroke-width="2"/><text x="116.1" y="417.3" text-anchor="start" font-size="15" font-weight="700" fill="#f4f4f5">GPT-5 nano</text><circle cx="451.0" cy="438.8" r="8" fill="#a78bfa" stroke="#18181b" stroke-width="2"/><text x="463.0" y="443.8" text-anchor="start" font-size="15" font-weight="400" fill="#f4f4f5">GPT-4.1</text><circle cx="278.5" cy="457.0" r="8" fill="#a78bfa" stroke="#18181b" stroke-width="2"/><text x="290.5" y="462.0" text-anchor="start" font-size="15" font-weight="400" fill="#f4f4f5">GPT-4.1 mini</text><circle cx="474.9" cy="520.1" r="8" fill="#a78bfa" stroke="#18181b" stroke-width="2"/><text x="486.9" y="525.1" text-anchor="start" font-size="15" font-weight="400" fill="#f4f4f5">GPT-4o</text><circle cx="173.4" cy="543.1" r="8" fill="#a78bfa" stroke="#18181b" stroke-width="2"/><text x="185.4" y="548.1" text-anchor="start" font-size="15" font-weight="400" fill="#f4f4f5">GPT-4o mini</text><circle cx="498" cy="84" r="7" fill="#34d399"/><text x="510" y="89" font-size="15" fill="#f4f4f5">Best value (frontier)</text><circle cx="676" cy="84" r="7" fill="#a78bfa"/><text x="688" y="89" font-size="15" fill="#f4f4f5">Other</text><text x="736" y="674" text-anchor="end" font-size="12" font-weight="600" fill="#a1a1aa">tokensave.app</text></svg>
