<svg xmlns="http://www.w3.org/2000/svg" viewBox="0 0 760 1020" width="760" height="1020" role="img" font-family="Inter, 'Segoe UI', Helvetica, Arial, sans-serif"><title>성능이 가장 높은 AI 모델</title><desc>Claude Opus 5.5: ECI 167.3, $10.40; GPT-6 Astra: ECI 166.4, $20.00; GPT-6.1 Sol: ECI 166.1, $4.00; Claude Sonnet 5.5: ECI 165.0, $5.20; Claude Fable 5.1: ECI 164.7, $26.00; GPT-6 Sol: ECI 162.7, $4.00; GPT-5.5: ECI 159.1, $11.25; Kimi K3: ECI 157.4, $6.00; Gemini 3.8 Flash: ECI 156.7, $1.42; GPT-6 Luna: ECI 156.3, $0.20; DeepSeek V4 Pro: ECI 155.3, $1.98; Qwen 3.8 Max: ECI 155.1, $3.00; Gemini 3.1 Pro: ECI 154.8, $4.27; DeepSeek V4.1 Flash: ECI 154.5, $0.52; Grok 4.7: ECI 153.5, $3.00; Grok 4.20: ECI 152.0, $1.56; Kimi K2.6: ECI 151.1, $1.71; GPT-5 mini: ECI 145.5, $0.69; Gemini 3.5 Flash-Lite: ECI 145.1, $0.81; Gemini 3.1 Flash-Lite: ECI 144.5, $0.53; Claude Haiku 4.5: ECI 142.4, $2.10; Mistral Medium 3.5: ECI 141.3, $3.15; GPT-5 nano: ECI 139.4, $0.14; GPT-4.1: ECI 136.8, $3.50; GPT-4.1 mini: ECI 135.0, $0.70; GPT-4o: ECI 128.8, $4.38; GPT-4o mini: ECI 126.6, $0.26</desc><rect width="760" height="1020" rx="16" fill="#18181b"/><text x="24" y="40" font-size="24" font-weight="700" fill="#f4f4f5">성능이 가장 높은 AI 모델</text><text x="24" y="68" font-size="15" fill="#a1a1aa">Epoch Capabilities Index와 90% 범위 (Epoch AI, CC BY) · 2026-10-06</text><line x1="210.0" y1="92" x2="210.0" y2="964" stroke="#3f3f46" stroke-width="0.6"/><text x="210.0" y="984" text-anchor="middle" font-size="14" fill="#a1a1aa">110</text><line x1="276.2" y1="92" x2="276.2" y2="964" stroke="#3f3f46" stroke-width="0.6"/><text x="276.2" y="984" text-anchor="middle" font-size="14" fill="#a1a1aa">120</text><line x1="342.3" y1="92" x2="342.3" y2="964" stroke="#3f3f46" stroke-width="0.6"/><text x="342.3" y="984" text-anchor="middle" font-size="14" fill="#a1a1aa">130</text><line x1="408.5" y1="92" x2="408.5" y2="964" stroke="#3f3f46" stroke-width="0.6"/><text x="408.5" y="984" text-anchor="middle" font-size="14" fill="#a1a1aa">140</text><line x1="474.6" y1="92" x2="474.6" y2="964" stroke="#3f3f46" stroke-width="0.6"/><text x="474.6" y="984" text-anchor="middle" font-size="14" fill="#a1a1aa">150</text><line x1="540.8" y1="92" x2="540.8" y2="964" stroke="#3f3f46" stroke-width="0.6"/><text x="540.8" y="984" text-anchor="middle" font-size="14" fill="#a1a1aa">160</text><line x1="606.9" y1="92" x2="606.9" y2="964" stroke="#3f3f46" stroke-width="0.6"/><text x="606.9" y="984" text-anchor="middle" font-size="14" fill="#a1a1aa">170</text><text x="198" y="120.0" text-anchor="end" font-size="15" font-weight="700" fill="#f4f4f5">Claude Opus 5.5</text><line x1="567.6" y1="116.0" x2="618.0" y2="116.0" stroke="#34d399" stroke-width="4" opacity="0.35" stroke-linecap="round"/><circle cx="589.3" cy="116.0" r="7.5" fill="#34d399"/><text x="626.0" y="121.0" font-size="14" fill="#f4f4f5">167.3</text><text x="198" y="152.0" text-anchor="end" font-size="15" font-weight="400" fill="#f4f4f5">GPT-6 Astra</text><line x1="562.9" y1="148.0" x2="616.6" y2="148.0" stroke="#a78bfa" stroke-width="4" opacity="0.35" stroke-linecap="round"/><circle cx="583.4" cy="148.0" r="7.5" fill="#a78bfa"/><text x="624.6" y="153.0" font-size="14" fill="#f4f4f5">166.4</text><text x="198" y="184.0" text-anchor="end" font-size="15" font-weight="700" fill="#f4f4f5">GPT-6.1 Sol</text><line x1="559.9" y1="180.0" x2="611.1" y2="180.0" stroke="#34d399" stroke-width="4" opacity="0.35" stroke-linecap="round"/><circle cx="581.1" cy="180.0" r="7.5" fill="#34d399"/><text x="619.1" y="185.0" font-size="14" fill="#f4f4f5">166.1</text><text x="198" y="216.0" text-anchor="end" font-size="15" font-weight="400" fill="#f4f4f5">Claude Sonnet 5.5</text><line x1="551.9" y1="212.0" x2="600.7" y2="212.0" stroke="#a78bfa" stroke-width="4" opacity="0.35" stroke-linecap="round"/><circle cx="574.0" cy="212.0" r="7.5" fill="#a78bfa"/><text x="608.7" y="217.0" font-size="14" fill="#f4f4f5">165.0</text><text x="198" y="248.0" text-anchor="end" font-size="15" font-weight="400" fill="#f4f4f5">Claude Fable 5.1</text><line x1="551.6" y1="244.0" x2="599.1" y2="244.0" stroke="#a78bfa" stroke-width="4" opacity="0.35" stroke-linecap="round"/><circle cx="571.9" cy="244.0" r="7.5" fill="#a78bfa"/><text x="607.1" y="249.0" font-size="14" fill="#f4f4f5">164.7</text><text x="198" y="280.0" text-anchor="end" font-size="15" font-weight="400" fill="#f4f4f5">GPT-6 Sol</text><line x1="541.2" y1="276.0" x2="584.2" y2="276.0" stroke="#a78bfa" stroke-width="4" opacity="0.35" stroke-linecap="round"/><circle cx="558.8" cy="276.0" r="7.5" fill="#a78bfa"/><text x="592.2" y="281.0" font-size="14" fill="#f4f4f5">162.7</text><text x="198" y="312.0" text-anchor="end" font-size="15" font-weight="400" fill="#f4f4f5">GPT-5.5</text><line x1="518.7" y1="308.0" x2="555.8" y2="308.0" stroke="#a78bfa" stroke-width="4" opacity="0.35" stroke-linecap="round"/><circle cx="534.8" cy="308.0" r="7.5" fill="#a78bfa"/><text x="563.8" y="313.0" font-size="14" fill="#f4f4f5">159.1</text><text x="198" y="344.0" text-anchor="end" font-size="15" font-weight="400" fill="#f4f4f5">Kimi K3</text><line x1="508.7" y1="340.0" x2="541.0" y2="340.0" stroke="#a78bfa" stroke-width="4" opacity="0.35" stroke-linecap="round"/><circle cx="523.9" cy="340.0" r="7.5" fill="#a78bfa"/><text x="549.0" y="345.0" font-size="14" fill="#f4f4f5">157.4</text><text x="198" y="376.0" text-anchor="end" font-size="15" font-weight="700" fill="#f4f4f5">Gemini 3.8 Flash</text><line x1="503.8" y1="372.0" x2="542.5" y2="372.0" stroke="#34d399" stroke-width="4" opacity="0.35" stroke-linecap="round"/><circle cx="519.0" cy="372.0" r="7.5" fill="#34d399"/><text x="550.5" y="377.0" font-size="14" fill="#f4f4f5">156.7</text><text x="198" y="408.0" text-anchor="end" font-size="15" font-weight="700" fill="#f4f4f5">GPT-6 Luna</text><line x1="498.9" y1="404.0" x2="532.5" y2="404.0" stroke="#34d399" stroke-width="4" opacity="0.35" stroke-linecap="round"/><circle cx="516.2" cy="404.0" r="7.5" fill="#34d399"/><text x="540.5" y="409.0" font-size="14" fill="#f4f4f5">156.3</text><text x="198" y="440.0" text-anchor="end" font-size="15" font-weight="400" fill="#f4f4f5">DeepSeek V4 Pro</text><line x1="497.6" y1="436.0" x2="523.9" y2="436.0" stroke="#a78bfa" stroke-width="4" opacity="0.35" stroke-linecap="round"/><circle cx="509.7" cy="436.0" r="7.5" fill="#a78bfa"/><text x="531.9" y="441.0" font-size="14" fill="#f4f4f5">155.3</text><text x="198" y="472.0" text-anchor="end" font-size="15" font-weight="400" fill="#f4f4f5">Qwen 3.8 Max</text><line x1="496.4" y1="468.0" x2="522.2" y2="468.0" stroke="#a78bfa" stroke-width="4" opacity="0.35" stroke-linecap="round"/><circle cx="508.0" cy="468.0" r="7.5" fill="#a78bfa"/><text x="530.2" y="473.0" font-size="14" fill="#f4f4f5">155.1</text><text x="198" y="504.0" text-anchor="end" font-size="15" font-weight="400" fill="#f4f4f5">Gemini 3.1 Pro</text><line x1="490.8" y1="500.0" x2="522.7" y2="500.0" stroke="#a78bfa" stroke-width="4" opacity="0.35" stroke-linecap="round"/><circle cx="506.2" cy="500.0" r="7.5" fill="#a78bfa"/><text x="530.7" y="505.0" font-size="14" fill="#f4f4f5">154.8</text><text x="198" y="536.0" text-anchor="end" font-size="15" font-weight="400" fill="#f4f4f5">DeepSeek V4.1 Flash</text><line x1="488.4" y1="532.0" x2="516.6" y2="532.0" stroke="#a78bfa" stroke-width="4" opacity="0.35" stroke-linecap="round"/><circle cx="504.3" cy="532.0" r="7.5" fill="#a78bfa"/><text x="524.6" y="537.0" font-size="14" fill="#f4f4f5">154.5</text><text x="198" y="568.0" text-anchor="end" font-size="15" font-weight="400" fill="#f4f4f5">Grok 4.7</text><line x1="486.8" y1="564.0" x2="513.3" y2="564.0" stroke="#a78bfa" stroke-width="4" opacity="0.35" stroke-linecap="round"/><circle cx="498.0" cy="564.0" r="7.5" fill="#a78bfa"/><text x="521.3" y="569.0" font-size="14" fill="#f4f4f5">153.5</text><text x="198" y="600.0" text-anchor="end" font-size="15" font-weight="400" fill="#f4f4f5">Grok 4.20</text><line x1="470.6" y1="596.0" x2="504.4" y2="596.0" stroke="#a78bfa" stroke-width="4" opacity="0.35" stroke-linecap="round"/><circle cx="487.7" cy="596.0" r="7.5" fill="#a78bfa"/><text x="512.4" y="601.0" font-size="14" fill="#f4f4f5">152.0</text><text x="198" y="632.0" text-anchor="end" font-size="15" font-weight="400" fill="#f4f4f5">Kimi K2.6</text><line x1="469.7" y1="628.0" x2="493.1" y2="628.0" stroke="#a78bfa" stroke-width="4" opacity="0.35" stroke-linecap="round"/><circle cx="481.6" cy="628.0" r="7.5" fill="#a78bfa"/><text x="501.1" y="633.0" font-size="14" fill="#f4f4f5">151.1</text><text x="198" y="664.0" text-anchor="end" font-size="15" font-weight="400" fill="#f4f4f5">GPT-5 mini</text><line x1="432.1" y1="660.0" x2="455.8" y2="660.0" stroke="#a78bfa" stroke-width="4" opacity="0.35" stroke-linecap="round"/><circle cx="445.0" cy="660.0" r="7.5" fill="#a78bfa"/><text x="463.8" y="665.0" font-size="14" fill="#f4f4f5">145.5</text><text x="198" y="696.0" text-anchor="end" font-size="15" font-weight="400" fill="#f4f4f5">Gemini 3.5 Flash-Lite</text><line x1="427.4" y1="692.0" x2="451.9" y2="692.0" stroke="#a78bfa" stroke-width="4" opacity="0.35" stroke-linecap="round"/><circle cx="442.4" cy="692.0" r="7.5" fill="#a78bfa"/><text x="459.9" y="697.0" font-size="14" fill="#f4f4f5">145.1</text><text x="198" y="728.0" text-anchor="end" font-size="15" font-weight="400" fill="#f4f4f5">Gemini 3.1 Flash-Lite</text><line x1="424.2" y1="724.0" x2="448.3" y2="724.0" stroke="#a78bfa" stroke-width="4" opacity="0.35" stroke-linecap="round"/><circle cx="438.0" cy="724.0" r="7.5" fill="#a78bfa"/><text x="456.3" y="729.0" font-size="14" fill="#f4f4f5">144.5</text><text x="198" y="760.0" text-anchor="end" font-size="15" font-weight="400" fill="#f4f4f5">Claude Haiku 4.5</text><line x1="404.5" y1="756.0" x2="435.4" y2="756.0" stroke="#a78bfa" stroke-width="4" opacity="0.35" stroke-linecap="round"/><circle cx="424.4" cy="756.0" r="7.5" fill="#a78bfa"/><text x="443.4" y="761.0" font-size="14" fill="#f4f4f5">142.4</text><text x="198" y="792.0" text-anchor="end" font-size="15" font-weight="400" fill="#f4f4f5">Mistral Medium 3.5</text><line x1="398.9" y1="788.0" x2="429.6" y2="788.0" stroke="#a78bfa" stroke-width="4" opacity="0.35" stroke-linecap="round"/><circle cx="417.4" cy="788.0" r="7.5" fill="#a78bfa"/><text x="437.6" y="793.0" font-size="14" fill="#f4f4f5">141.3</text><text x="198" y="824.0" text-anchor="end" font-size="15" font-weight="700" fill="#f4f4f5">GPT-5 nano</text><line x1="369.2" y1="820.0" x2="417.7" y2="820.0" stroke="#34d399" stroke-width="4" opacity="0.35" stroke-linecap="round"/><circle cx="404.4" cy="820.0" r="7.5" fill="#34d399"/><text x="425.7" y="825.0" font-size="14" fill="#f4f4f5">139.4</text><text x="198" y="856.0" text-anchor="end" font-size="15" font-weight="400" fill="#f4f4f5">GPT-4.1</text><line x1="366.3" y1="852.0" x2="399.3" y2="852.0" stroke="#a78bfa" stroke-width="4" opacity="0.35" stroke-linecap="round"/><circle cx="387.2" cy="852.0" r="7.5" fill="#a78bfa"/><text x="407.3" y="857.0" font-size="14" fill="#f4f4f5">136.8</text><text x="198" y="888.0" text-anchor="end" font-size="15" font-weight="400" fill="#f4f4f5">GPT-4.1 mini</text><line x1="350.8" y1="884.0" x2="386.4" y2="884.0" stroke="#a78bfa" stroke-width="4" opacity="0.35" stroke-linecap="round"/><circle cx="375.5" cy="884.0" r="7.5" fill="#a78bfa"/><text x="394.4" y="889.0" font-size="14" fill="#f4f4f5">135.0</text><text x="198" y="920.0" text-anchor="end" font-size="15" font-weight="400" fill="#f4f4f5">GPT-4o</text><line x1="300.2" y1="916.0" x2="349.9" y2="916.0" stroke="#a78bfa" stroke-width="4" opacity="0.35" stroke-linecap="round"/><circle cx="334.4" cy="916.0" r="7.5" fill="#a78bfa"/><text x="357.9" y="921.0" font-size="14" fill="#f4f4f5">128.8</text><text x="198" y="952.0" text-anchor="end" font-size="15" font-weight="400" fill="#f4f4f5">GPT-4o mini</text><line x1="270.2" y1="948.0" x2="333.7" y2="948.0" stroke="#a78bfa" stroke-width="4" opacity="0.35" stroke-linecap="round"/><circle cx="319.6" cy="948.0" r="7.5" fill="#a78bfa"/><text x="341.7" y="953.0" font-size="14" fill="#f4f4f5">126.6</text><text x="736" y="1010" text-anchor="end" font-size="12" font-weight="600" fill="#a1a1aa">tokensave.app</text></svg>
