<svg xmlns="http://www.w3.org/2000/svg" viewBox="0 0 760 750" width="760" height="750" role="img" font-family="Inter, 'Segoe UI', Helvetica, Arial, sans-serif"><title>Most capable AI models</title><desc>Claude Opus 5.5: ECI 167.3, $10.40; GPT-6 Astra: ECI 166.5, $20.00; Claude Sonnet 5.5: ECI 165.2, $5.20; Claude Fable 5.1: ECI 164.8, $26.00; GPT-5.5: ECI 159.2, $11.25; Kimi K3: ECI 157.6, $6.00; Gemini 3.8 Flash: ECI 156.9, $1.42; DeepSeek V4 Pro: ECI 155.4, $1.98; Qwen 3.8 Max: ECI 155.2, $3.00; Gemini 3.1 Pro: ECI 154.8, $4.27; DeepSeek V4 Flash: ECI 154.5, $0.52; Grok 4.20: ECI 152.0, $1.56; Kimi K2.6: ECI 151.1, $1.71; GPT-5 mini: ECI 145.5, $0.69; Gemini 3.5 Flash-Lite: ECI 145.1, $0.81; Gemini 3.1 Flash-Lite: ECI 144.4, $0.53; Claude Haiku 4.5: ECI 142.4, $2.10; Mistral Medium 3.5: ECI 141.4, $3.15; GPT-5 nano: ECI 139.4, $0.14; GPT-4.1: ECI 136.8, $3.50; GPT-4.1 mini: ECI 135.0, $0.70; GPT-4o: ECI 128.8, $4.38; GPT-4o mini: ECI 126.6, $0.26</desc><rect width="760" height="750" rx="16" fill="#18181b"/><text x="24" y="40" font-size="21" font-weight="700" fill="#f4f4f5">Most capable AI models</text><text x="24" y="64" font-size="14" fill="#a1a1aa">Epoch Capabilities Index with 90% range (Epoch AI, CC BY) · 2026-10-04</text><line x1="190.0" y1="88" x2="190.0" y2="694" stroke="#3f3f46" stroke-width="0.6"/><text x="190.0" y="712" text-anchor="middle" font-size="12" fill="#a1a1aa">110</text><line x1="263.8" y1="88" x2="263.8" y2="694" stroke="#3f3f46" stroke-width="0.6"/><text x="263.8" y="712" text-anchor="middle" font-size="12" fill="#a1a1aa">120</text><line x1="337.7" y1="88" x2="337.7" y2="694" stroke="#3f3f46" stroke-width="0.6"/><text x="337.7" y="712" text-anchor="middle" font-size="12" fill="#a1a1aa">130</text><line x1="411.5" y1="88" x2="411.5" y2="694" stroke="#3f3f46" stroke-width="0.6"/><text x="411.5" y="712" text-anchor="middle" font-size="12" fill="#a1a1aa">140</text><line x1="485.4" y1="88" x2="485.4" y2="694" stroke="#3f3f46" stroke-width="0.6"/><text x="485.4" y="712" text-anchor="middle" font-size="12" fill="#a1a1aa">150</text><line x1="559.2" y1="88" x2="559.2" y2="694" stroke="#3f3f46" stroke-width="0.6"/><text x="559.2" y="712" text-anchor="middle" font-size="12" fill="#a1a1aa">160</text><line x1="633.1" y1="88" x2="633.1" y2="694" stroke="#3f3f46" stroke-width="0.6"/><text x="633.1" y="712" text-anchor="middle" font-size="12" fill="#a1a1aa">170</text><text x="178" y="113.0" text-anchor="end" font-size="13" font-weight="700" fill="#f4f4f5">Claude Opus 5.5</text><line x1="588.8" y1="109.0" x2="647.8" y2="109.0" stroke="#34d399" stroke-width="3" opacity="0.35" stroke-linecap="round"/><circle cx="613.5" cy="109.0" r="5.5" fill="#34d399"/><text x="655.8" y="113.0" font-size="12" fill="#f4f4f5">167.3</text><text x="178" y="139.0" text-anchor="end" font-size="13" font-weight="400" fill="#f4f4f5">GPT-6 Astra</text><line x1="582.4" y1="135.0" x2="640.8" y2="135.0" stroke="#a78bfa" stroke-width="3" opacity="0.35" stroke-linecap="round"/><circle cx="607.3" cy="135.0" r="5.5" fill="#a78bfa"/><text x="648.8" y="139.0" font-size="12" fill="#f4f4f5">166.5</text><text x="178" y="165.0" text-anchor="end" font-size="13" font-weight="700" fill="#f4f4f5">Claude Sonnet 5.5</text><line x1="572.6" y1="161.0" x2="628.6" y2="161.0" stroke="#34d399" stroke-width="3" opacity="0.35" stroke-linecap="round"/><circle cx="597.6" cy="161.0" r="5.5" fill="#34d399"/><text x="636.6" y="165.0" font-size="12" fill="#f4f4f5">165.2</text><text x="178" y="191.0" text-anchor="end" font-size="13" font-weight="400" fill="#f4f4f5">Claude Fable 5.1</text><line x1="572.5" y1="187.0" x2="626.2" y2="187.0" stroke="#a78bfa" stroke-width="3" opacity="0.35" stroke-linecap="round"/><circle cx="594.8" cy="187.0" r="5.5" fill="#a78bfa"/><text x="634.2" y="191.0" font-size="12" fill="#f4f4f5">164.8</text><text x="178" y="217.0" text-anchor="end" font-size="13" font-weight="400" fill="#f4f4f5">GPT-5.5</text><line x1="536.1" y1="213.0" x2="576.7" y2="213.0" stroke="#a78bfa" stroke-width="3" opacity="0.35" stroke-linecap="round"/><circle cx="553.5" cy="213.0" r="5.5" fill="#a78bfa"/><text x="584.7" y="217.0" font-size="12" fill="#f4f4f5">159.2</text><text x="178" y="243.0" text-anchor="end" font-size="13" font-weight="400" fill="#f4f4f5">Kimi K3</text><line x1="521.7" y1="239.0" x2="562.3" y2="239.0" stroke="#a78bfa" stroke-width="3" opacity="0.35" stroke-linecap="round"/><circle cx="541.6" cy="239.0" r="5.5" fill="#a78bfa"/><text x="570.3" y="243.0" font-size="12" fill="#f4f4f5">157.6</text><text x="178" y="269.0" text-anchor="end" font-size="13" font-weight="700" fill="#f4f4f5">Gemini 3.8 Flash</text><line x1="519.6" y1="265.0" x2="562.3" y2="265.0" stroke="#34d399" stroke-width="3" opacity="0.35" stroke-linecap="round"/><circle cx="536.6" cy="265.0" r="5.5" fill="#34d399"/><text x="570.3" y="269.0" font-size="12" fill="#f4f4f5">156.9</text><text x="178" y="295.0" text-anchor="end" font-size="13" font-weight="400" fill="#f4f4f5">DeepSeek V4 Pro</text><line x1="512.4" y1="291.0" x2="541.2" y2="291.0" stroke="#a78bfa" stroke-width="3" opacity="0.35" stroke-linecap="round"/><circle cx="525.1" cy="291.0" r="5.5" fill="#a78bfa"/><text x="549.2" y="295.0" font-size="12" fill="#f4f4f5">155.4</text><text x="178" y="321.0" text-anchor="end" font-size="13" font-weight="400" fill="#f4f4f5">Qwen 3.8 Max</text><line x1="509.3" y1="317.0" x2="539.5" y2="317.0" stroke="#a78bfa" stroke-width="3" opacity="0.35" stroke-linecap="round"/><circle cx="523.6" cy="317.0" r="5.5" fill="#a78bfa"/><text x="547.5" y="321.0" font-size="12" fill="#f4f4f5">155.2</text><text x="178" y="347.0" text-anchor="end" font-size="13" font-weight="400" fill="#f4f4f5">Gemini 3.1 Pro</text><line x1="504.4" y1="343.0" x2="539.6" y2="343.0" stroke="#a78bfa" stroke-width="3" opacity="0.35" stroke-linecap="round"/><circle cx="521.1" cy="343.0" r="5.5" fill="#a78bfa"/><text x="547.6" y="347.0" font-size="12" fill="#f4f4f5">154.8</text><text x="178" y="373.0" text-anchor="end" font-size="13" font-weight="700" fill="#f4f4f5">DeepSeek V4 Flash</text><line x1="500.3" y1="369.0" x2="533.8" y2="369.0" stroke="#34d399" stroke-width="3" opacity="0.35" stroke-linecap="round"/><circle cx="518.8" cy="369.0" r="5.5" fill="#34d399"/><text x="541.8" y="373.0" font-size="12" fill="#f4f4f5">154.5</text><text x="178" y="399.0" text-anchor="end" font-size="13" font-weight="400" fill="#f4f4f5">Grok 4.20</text><line x1="480.4" y1="395.0" x2="517.7" y2="395.0" stroke="#a78bfa" stroke-width="3" opacity="0.35" stroke-linecap="round"/><circle cx="500.3" cy="395.0" r="5.5" fill="#a78bfa"/><text x="525.7" y="399.0" font-size="12" fill="#f4f4f5">152.0</text><text x="178" y="425.0" text-anchor="end" font-size="13" font-weight="400" fill="#f4f4f5">Kimi K2.6</text><line x1="478.9" y1="421.0" x2="506.1" y2="421.0" stroke="#a78bfa" stroke-width="3" opacity="0.35" stroke-linecap="round"/><circle cx="493.1" cy="421.0" r="5.5" fill="#a78bfa"/><text x="514.1" y="425.0" font-size="12" fill="#f4f4f5">151.1</text><text x="178" y="451.0" text-anchor="end" font-size="13" font-weight="400" fill="#f4f4f5">GPT-5 mini</text><line x1="438.4" y1="447.0" x2="463.2" y2="447.0" stroke="#a78bfa" stroke-width="3" opacity="0.35" stroke-linecap="round"/><circle cx="452.2" cy="447.0" r="5.5" fill="#a78bfa"/><text x="471.2" y="451.0" font-size="12" fill="#f4f4f5">145.5</text><text x="178" y="477.0" text-anchor="end" font-size="13" font-weight="400" fill="#f4f4f5">Gemini 3.5 Flash-Lite</text><line x1="429.7" y1="473.0" x2="460.9" y2="473.0" stroke="#a78bfa" stroke-width="3" opacity="0.35" stroke-linecap="round"/><circle cx="449.3" cy="473.0" r="5.5" fill="#a78bfa"/><text x="468.9" y="477.0" font-size="12" fill="#f4f4f5">145.1</text><text x="178" y="503.0" text-anchor="end" font-size="13" font-weight="400" fill="#f4f4f5">Gemini 3.1 Flash-Lite</text><line x1="429.0" y1="499.0" x2="457.0" y2="499.0" stroke="#a78bfa" stroke-width="3" opacity="0.35" stroke-linecap="round"/><circle cx="444.4" cy="499.0" r="5.5" fill="#a78bfa"/><text x="465.0" y="503.0" font-size="12" fill="#f4f4f5">144.4</text><text x="178" y="529.0" text-anchor="end" font-size="13" font-weight="400" fill="#f4f4f5">Claude Haiku 4.5</text><line x1="408.1" y1="525.0" x2="443.3" y2="525.0" stroke="#a78bfa" stroke-width="3" opacity="0.35" stroke-linecap="round"/><circle cx="429.4" cy="525.0" r="5.5" fill="#a78bfa"/><text x="451.3" y="529.0" font-size="12" fill="#f4f4f5">142.4</text><text x="178" y="555.0" text-anchor="end" font-size="13" font-weight="400" fill="#f4f4f5">Mistral Medium 3.5</text><line x1="399.6" y1="551.0" x2="438.5" y2="551.0" stroke="#a78bfa" stroke-width="3" opacity="0.35" stroke-linecap="round"/><circle cx="421.8" cy="551.0" r="5.5" fill="#a78bfa"/><text x="446.5" y="555.0" font-size="12" fill="#f4f4f5">141.4</text><text x="178" y="581.0" text-anchor="end" font-size="13" font-weight="700" fill="#f4f4f5">GPT-5 nano</text><line x1="374.2" y1="577.0" x2="423.8" y2="577.0" stroke="#34d399" stroke-width="3" opacity="0.35" stroke-linecap="round"/><circle cx="407.0" cy="577.0" r="5.5" fill="#34d399"/><text x="431.8" y="581.0" font-size="12" fill="#f4f4f5">139.4</text><text x="178" y="607.0" text-anchor="end" font-size="13" font-weight="400" fill="#f4f4f5">GPT-4.1</text><line x1="364.6" y1="603.0" x2="399.6" y2="603.0" stroke="#a78bfa" stroke-width="3" opacity="0.35" stroke-linecap="round"/><circle cx="387.8" cy="603.0" r="5.5" fill="#a78bfa"/><text x="407.6" y="607.0" font-size="12" fill="#f4f4f5">136.8</text><text x="178" y="633.0" text-anchor="end" font-size="13" font-weight="400" fill="#f4f4f5">GPT-4.1 mini</text><line x1="346.8" y1="629.0" x2="386.7" y2="629.0" stroke="#a78bfa" stroke-width="3" opacity="0.35" stroke-linecap="round"/><circle cx="374.6" cy="629.0" r="5.5" fill="#a78bfa"/><text x="394.7" y="633.0" font-size="12" fill="#f4f4f5">135.0</text><text x="178" y="659.0" text-anchor="end" font-size="13" font-weight="400" fill="#f4f4f5">GPT-4o</text><line x1="291.6" y1="655.0" x2="347.4" y2="655.0" stroke="#a78bfa" stroke-width="3" opacity="0.35" stroke-linecap="round"/><circle cx="328.9" cy="655.0" r="5.5" fill="#a78bfa"/><text x="355.4" y="659.0" font-size="12" fill="#f4f4f5">128.8</text><text x="178" y="685.0" text-anchor="end" font-size="13" font-weight="400" fill="#f4f4f5">GPT-4o mini</text><line x1="267.3" y1="681.0" x2="326.9" y2="681.0" stroke="#a78bfa" stroke-width="3" opacity="0.35" stroke-linecap="round"/><circle cx="312.3" cy="681.0" r="5.5" fill="#a78bfa"/><text x="334.9" y="685.0" font-size="12" fill="#f4f4f5">126.6</text><text x="736" y="740" text-anchor="end" font-size="12" font-weight="600" fill="#a1a1aa">tokensave.app</text></svg>
